<?xml version="1.0" encoding="UTF-8" standalone="no"?>
<svg
        xmlns:dc="http://purl.org/dc/elements/1.1/"
        xmlns:cc="http://creativecommons.org/ns#"
        xmlns:rdf="http://www.w3.org/1999/02/22-rdf-syntax-ns#"
        xmlns:svg="http://www.w3.org/2000/svg"
        xmlns="http://www.w3.org/2000/svg"
        xmlns:sodipodi="http://sodipodi.sourceforge.net/DTD/sodipodi-0.dtd"
        xmlns:inkscape="http://www.inkscape.org/namespaces/inkscape"
        version="1.1"
        width="36.376736"
        height="32.492653"
        viewBox="-3 -53 56 56"
        id="svg2"
        inkscape:version="0.91 r13725"
        sodipodi:docname="all-symbols.svg">
  <rect x="-1000" y="-1000" width="2000" height="2000" fill="lightgrey"></rect><line x1="0" y1="0" x2="3.061616997868383e-15" y2="-50" stroke="white" stroke-width="0.2"></line><line x1="10" y1="0" x2="10" y2="-50" stroke="white" stroke-width="0.2"></line><line x1="20" y1="0" x2="20" y2="-50" stroke="white" stroke-width="0.2"></line><line x1="30" y1="0" x2="30" y2="-50" stroke="white" stroke-width="0.2"></line><line x1="40" y1="0" x2="40" y2="-50" stroke="white" stroke-width="0.2"></line><line x1="50" y1="0" x2="50" y2="-50" stroke="white" stroke-width="0.2"></line><line x1="50" y1="0" x2="0" y2="-3.061616997868383e-15" stroke="white" stroke-width="0.2"></line><line x1="50" y1="-10" x2="0" y2="-10" stroke="white" stroke-width="0.2"></line><line x1="50" y1="-20" x2="0" y2="-20" stroke="white" stroke-width="0.2"></line><line x1="50" y1="-30" x2="0" y2="-30" stroke="white" stroke-width="0.2"></line><line x1="50" y1="-40" x2="0" y2="-40" stroke="white" stroke-width="0.2"></line><line x1="50" y1="-50" x2="0" y2="-50" stroke="white" stroke-width="0.2"></line><line x1="5.000000000000001" y1="-25" x2="6.767766952966371" y2="-26.767766952966376" stroke="dodgerblue" stroke-width="3.0000000000000027" stroke-linecap="round"></line><line x1="5.000000000000001" y1="-25" x2="3.232233047033631" y2="-26.767766952966376" stroke="dodgerblue" stroke-width="3.0000000000000027" stroke-linecap="round"></line><line x1="5.000000000000001" y1="-25" x2="6.767766952966371" y2="-23.232233047033624" stroke="dodgerblue" stroke-width="3.0000000000000027" stroke-linecap="round"></line><line x1="5.000000000000001" y1="-25" x2="3.232233047033631" y2="-23.232233047033624" stroke="dodgerblue" stroke-width="3.0000000000000027" stroke-linecap="round"></line><circle cx="15.000000000000002" cy="-25" r="2.9999999999999947" fill="sandybrown" stroke="sandybrown" stroke-width="1.4999999999999973"></circle><rect x="20" y="-30" width="10" height="10" stroke="none" stroke-width="1" fill="mistyrose"></rect><polygon points="27.61629509039022 -27.61629509039022 22.38370490960978 -27.61629509039022 22.38370490960978 -22.38370490960978 27.61629509039022 -22.38370490960978" fill="lightcoral" stroke="lightcoral" stroke-width="1.5" stroke-linejoin="round"></polygon><polygon points="35 -27.700000000000003 32.0555136271329 -22.6 37.9444863728671 -22.6" fill="mediumaquamarine" stroke="mediumaquamarine" stroke-width="1.5" stroke-linejoin="round"></polygon><polygon points="45 -28 44.11832212156129 -26.21352549156242 42.14683045111454 -25.927050983124843 43.57341522555727 -24.536474508437582 43.23664424312258 -22.572949016875157 45 -23.5 46.76335575687742 -22.572949016875157 46.42658477444273 -24.53647450843758 47.85316954888546 -25.927050983124843 45.88167787843871 -26.21352549156242" fill="orchid" stroke="orchid" stroke-width="1.5" stroke-linejoin="round"></polygon><line x1="-1.4999999999999998" y1="-4.5" x2="-0.9696699141100891" y2="-5.03033008588991" stroke="dodgerblue" stroke-width="0.9000000000000001" stroke-linecap="round"></line><line x1="-1.4999999999999998" y1="-4.5" x2="-2.0303300858899105" y2="-5.030330085889911" stroke="dodgerblue" stroke-width="0.9000000000000001" stroke-linecap="round"></line><line x1="-1.4999999999999998" y1="-4.5" x2="-0.9696699141100891" y2="-3.9696699141100904" stroke="dodgerblue" stroke-width="0.9000000000000001" stroke-linecap="round"></line><line x1="-1.4999999999999998" y1="-4.5" x2="-2.0303300858899105" y2="-3.969669914110088" stroke="dodgerblue" stroke-width="0.9000000000000001" stroke-linecap="round"></line><line x1="-1.4999999999999991" y1="-14.5" x2="-0.9696699141100884" y2="-15.03033008588991" stroke="dodgerblue" stroke-width="0.9000000000000001" stroke-linecap="round"></line><line x1="-1.4999999999999991" y1="-14.5" x2="-2.0303300858899096" y2="-15.03033008588991" stroke="dodgerblue" stroke-width="0.9000000000000001" stroke-linecap="round"></line><line x1="-1.4999999999999991" y1="-14.5" x2="-0.9696699141100884" y2="-13.96966991411009" stroke="dodgerblue" stroke-width="0.9000000000000001" stroke-linecap="round"></line><line x1="-1.4999999999999991" y1="-14.5" x2="-2.0303300858899096" y2="-13.96966991411009" stroke="dodgerblue" stroke-width="0.9000000000000001" stroke-linecap="round"></line><line x1="-1.4999999999999984" y1="-24.5" x2="-0.9696699141100877" y2="-25.030330085889908" stroke="dodgerblue" stroke-width="0.9000000000000001" stroke-linecap="round"></line><line x1="-1.4999999999999984" y1="-24.5" x2="-2.030330085889909" y2="-25.030330085889908" stroke="dodgerblue" stroke-width="0.9000000000000001" stroke-linecap="round"></line><line x1="-1.4999999999999984" y1="-24.5" x2="-0.9696699141100877" y2="-23.969669914110092" stroke="dodgerblue" stroke-width="0.9000000000000001" stroke-linecap="round"></line><line x1="-1.4999999999999984" y1="-24.5" x2="-2.030330085889909" y2="-23.969669914110092" stroke="dodgerblue" stroke-width="0.9000000000000001" stroke-linecap="round"></line><line x1="-1.4999999999999978" y1="-34.5" x2="-0.9696699141100871" y2="-35.030330085889915" stroke="dodgerblue" stroke-width="0.9000000000000001" stroke-linecap="round"></line><line x1="-1.4999999999999978" y1="-34.5" x2="-2.0303300858899087" y2="-35.030330085889915" stroke="dodgerblue" stroke-width="0.9000000000000001" stroke-linecap="round"></line><line x1="-1.4999999999999978" y1="-34.5" x2="-0.9696699141100871" y2="-33.969669914110085" stroke="dodgerblue" stroke-width="0.9000000000000001" stroke-linecap="round"></line><line x1="-1.4999999999999978" y1="-34.5" x2="-2.0303300858899087" y2="-33.969669914110085" stroke="dodgerblue" stroke-width="0.9000000000000001" stroke-linecap="round"></line><line x1="-1.4999999999999971" y1="-44.5" x2="-0.9696699141100864" y2="-45.030330085889915" stroke="dodgerblue" stroke-width="0.9000000000000001" stroke-linecap="round"></line><line x1="-1.4999999999999971" y1="-44.5" x2="-2.030330085889908" y2="-45.030330085889915" stroke="dodgerblue" stroke-width="0.9000000000000001" stroke-linecap="round"></line><line x1="-1.4999999999999971" y1="-44.5" x2="-0.9696699141100864" y2="-43.969669914110085" stroke="dodgerblue" stroke-width="0.9000000000000001" stroke-linecap="round"></line><line x1="-1.4999999999999971" y1="-44.5" x2="-2.030330085889908" y2="-43.969669914110085" stroke="dodgerblue" stroke-width="0.9000000000000001" stroke-linecap="round"></line><line x1="45.5" y1="1.4999999999999998" x2="44.969669914110085" y2="0.9696699141100891" stroke="dodgerblue" stroke-width="0.9000000000000001" stroke-linecap="round"></line><line x1="45.5" y1="1.4999999999999998" x2="44.969669914110085" y2="2.0303300858899105" stroke="dodgerblue" stroke-width="0.9000000000000001" stroke-linecap="round"></line><line x1="45.5" y1="1.4999999999999998" x2="46.030330085889915" y2="0.9696699141100891" stroke="dodgerblue" stroke-width="0.9000000000000001" stroke-linecap="round"></line><line x1="45.5" y1="1.4999999999999998" x2="46.030330085889915" y2="2.0303300858899105" stroke="dodgerblue" stroke-width="0.9000000000000001" stroke-linecap="round"></line><line x1="35.5" y1="1.4999999999999991" x2="34.969669914110085" y2="0.9696699141100884" stroke="dodgerblue" stroke-width="0.9000000000000001" stroke-linecap="round"></line><line x1="35.5" y1="1.4999999999999991" x2="34.969669914110085" y2="2.0303300858899096" stroke="dodgerblue" stroke-width="0.9000000000000001" stroke-linecap="round"></line><line x1="35.5" y1="1.4999999999999991" x2="36.030330085889915" y2="0.9696699141100884" stroke="dodgerblue" stroke-width="0.9000000000000001" stroke-linecap="round"></line><line x1="35.5" y1="1.4999999999999991" x2="36.030330085889915" y2="2.0303300858899096" stroke="dodgerblue" stroke-width="0.9000000000000001" stroke-linecap="round"></line><line x1="25.5" y1="1.4999999999999984" x2="24.969669914110092" y2="0.9696699141100877" stroke="dodgerblue" stroke-width="0.9000000000000001" stroke-linecap="round"></line><line x1="25.5" y1="1.4999999999999984" x2="24.969669914110092" y2="2.030330085889909" stroke="dodgerblue" stroke-width="0.9000000000000001" stroke-linecap="round"></line><line x1="25.5" y1="1.4999999999999984" x2="26.030330085889908" y2="0.9696699141100877" stroke="dodgerblue" stroke-width="0.9000000000000001" stroke-linecap="round"></line><line x1="25.5" y1="1.4999999999999984" x2="26.030330085889908" y2="2.030330085889909" stroke="dodgerblue" stroke-width="0.9000000000000001" stroke-linecap="round"></line><line x1="15.5" y1="1.4999999999999978" x2="14.96966991411009" y2="0.9696699141100871" stroke="dodgerblue" stroke-width="0.9000000000000001" stroke-linecap="round"></line><line x1="15.5" y1="1.4999999999999978" x2="14.96966991411009" y2="2.0303300858899087" stroke="dodgerblue" stroke-width="0.9000000000000001" stroke-linecap="round"></line><line x1="15.5" y1="1.4999999999999978" x2="16.030330085889908" y2="0.9696699141100871" stroke="dodgerblue" stroke-width="0.9000000000000001" stroke-linecap="round"></line><line x1="15.5" y1="1.4999999999999978" x2="16.030330085889908" y2="2.0303300858899087" stroke="dodgerblue" stroke-width="0.9000000000000001" stroke-linecap="round"></line><line x1="5.5" y1="1.4999999999999971" x2="4.96966991411009" y2="0.9696699141100864" stroke="dodgerblue" stroke-width="0.9000000000000001" stroke-linecap="round"></line><line x1="5.5" y1="1.4999999999999971" x2="4.969669914110089" y2="2.030330085889908" stroke="dodgerblue" stroke-width="0.9000000000000001" stroke-linecap="round"></line><line x1="5.5" y1="1.4999999999999971" x2="6.03033008588991" y2="0.9696699141100864" stroke="dodgerblue" stroke-width="0.9000000000000001" stroke-linecap="round"></line><line x1="5.5" y1="1.4999999999999971" x2="6.030330085889911" y2="2.030330085889908" stroke="dodgerblue" stroke-width="0.9000000000000001" stroke-linecap="round"></line><line x1="51.5" y1="-45.5" x2="50.9696699141101" y2="-44.9696699141101" stroke="dodgerblue" stroke-width="0.8999999999999915" stroke-linecap="round"></line><line x1="51.5" y1="-45.5" x2="52.0303300858899" y2="-44.9696699141101" stroke="dodgerblue" stroke-width="0.8999999999999915" stroke-linecap="round"></line><line x1="51.5" y1="-45.5" x2="50.9696699141101" y2="-46.0303300858899" stroke="dodgerblue" stroke-width="0.8999999999999915" stroke-linecap="round"></line><line x1="51.5" y1="-45.5" x2="52.0303300858899" y2="-46.0303300858899" stroke="dodgerblue" stroke-width="0.8999999999999915" stroke-linecap="round"></line><line x1="51.5" y1="-35.5" x2="50.9696699141101" y2="-34.9696699141101" stroke="dodgerblue" stroke-width="0.8999999999999915" stroke-linecap="round"></line><line x1="51.5" y1="-35.5" x2="52.0303300858899" y2="-34.9696699141101" stroke="dodgerblue" stroke-width="0.8999999999999915" stroke-linecap="round"></line><line x1="51.5" y1="-35.5" x2="50.9696699141101" y2="-36.0303300858899" stroke="dodgerblue" stroke-width="0.8999999999999915" stroke-linecap="round"></line><line x1="51.5" y1="-35.5" x2="52.0303300858899" y2="-36.0303300858899" stroke="dodgerblue" stroke-width="0.8999999999999915" stroke-linecap="round"></line><line x1="51.5" y1="-25.5" x2="50.9696699141101" y2="-24.969669914110092" stroke="dodgerblue" stroke-width="0.8999999999999915" stroke-linecap="round"></line><line x1="51.5" y1="-25.5" x2="52.0303300858899" y2="-24.969669914110092" stroke="dodgerblue" stroke-width="0.8999999999999915" stroke-linecap="round"></line><line x1="51.5" y1="-25.5" x2="50.9696699141101" y2="-26.030330085889908" stroke="dodgerblue" stroke-width="0.8999999999999915" stroke-linecap="round"></line><line x1="51.5" y1="-25.5" x2="52.0303300858899" y2="-26.030330085889908" stroke="dodgerblue" stroke-width="0.8999999999999915" stroke-linecap="round"></line><line x1="51.5" y1="-15.5" x2="50.9696699141101" y2="-14.969669914110096" stroke="dodgerblue" stroke-width="0.8999999999999915" stroke-linecap="round"></line><line x1="51.5" y1="-15.5" x2="52.0303300858899" y2="-14.969669914110096" stroke="dodgerblue" stroke-width="0.8999999999999915" stroke-linecap="round"></line><line x1="51.5" y1="-15.5" x2="50.9696699141101" y2="-16.030330085889904" stroke="dodgerblue" stroke-width="0.8999999999999915" stroke-linecap="round"></line><line x1="51.5" y1="-15.5" x2="52.0303300858899" y2="-16.030330085889904" stroke="dodgerblue" stroke-width="0.8999999999999915" stroke-linecap="round"></line><line x1="51.5" y1="-5.5" x2="50.9696699141101" y2="-4.969669914110095" stroke="dodgerblue" stroke-width="0.8999999999999915" stroke-linecap="round"></line><line x1="51.5" y1="-5.5" x2="52.0303300858899" y2="-4.969669914110095" stroke="dodgerblue" stroke-width="0.8999999999999915" stroke-linecap="round"></line><line x1="51.5" y1="-5.5" x2="50.9696699141101" y2="-6.030330085889905" stroke="dodgerblue" stroke-width="0.8999999999999915" stroke-linecap="round"></line><line x1="51.5" y1="-5.5" x2="52.0303300858899" y2="-6.030330085889905" stroke="dodgerblue" stroke-width="0.8999999999999915" stroke-linecap="round"></line><line x1="4.5" y1="-51.5" x2="5.030330085889905" y2="-50.9696699141101" stroke="dodgerblue" stroke-width="0.8999999999999915" stroke-linecap="round"></line><line x1="4.5" y1="-51.5" x2="5.030330085889905" y2="-52.0303300858899" stroke="dodgerblue" stroke-width="0.8999999999999915" stroke-linecap="round"></line><line x1="4.5" y1="-51.5" x2="3.969669914110095" y2="-50.9696699141101" stroke="dodgerblue" stroke-width="0.8999999999999915" stroke-linecap="round"></line><line x1="4.5" y1="-51.5" x2="3.969669914110095" y2="-52.0303300858899" stroke="dodgerblue" stroke-width="0.8999999999999915" stroke-linecap="round"></line><line x1="14.5" y1="-51.5" x2="15.030330085889904" y2="-50.9696699141101" stroke="dodgerblue" stroke-width="0.8999999999999915" stroke-linecap="round"></line><line x1="14.5" y1="-51.5" x2="15.030330085889904" y2="-52.0303300858899" stroke="dodgerblue" stroke-width="0.8999999999999915" stroke-linecap="round"></line><line x1="14.5" y1="-51.5" x2="13.969669914110096" y2="-50.9696699141101" stroke="dodgerblue" stroke-width="0.8999999999999915" stroke-linecap="round"></line><line x1="14.5" y1="-51.5" x2="13.969669914110096" y2="-52.0303300858899" stroke="dodgerblue" stroke-width="0.8999999999999915" stroke-linecap="round"></line><line x1="24.5" y1="-51.5" x2="25.030330085889908" y2="-50.9696699141101" stroke="dodgerblue" stroke-width="0.8999999999999915" stroke-linecap="round"></line><line x1="24.5" y1="-51.5" x2="25.030330085889908" y2="-52.0303300858899" stroke="dodgerblue" stroke-width="0.8999999999999915" stroke-linecap="round"></line><line x1="24.5" y1="-51.5" x2="23.969669914110092" y2="-50.9696699141101" stroke="dodgerblue" stroke-width="0.8999999999999915" stroke-linecap="round"></line><line x1="24.5" y1="-51.5" x2="23.969669914110092" y2="-52.0303300858899" stroke="dodgerblue" stroke-width="0.8999999999999915" stroke-linecap="round"></line><line x1="34.5" y1="-51.5" x2="35.0303300858899" y2="-50.9696699141101" stroke="dodgerblue" stroke-width="0.8999999999999915" stroke-linecap="round"></line><line x1="34.5" y1="-51.5" x2="35.0303300858899" y2="-52.0303300858899" stroke="dodgerblue" stroke-width="0.8999999999999915" stroke-linecap="round"></line><line x1="34.5" y1="-51.5" x2="33.9696699141101" y2="-50.9696699141101" stroke="dodgerblue" stroke-width="0.8999999999999915" stroke-linecap="round"></line><line x1="34.5" y1="-51.5" x2="33.9696699141101" y2="-52.0303300858899" stroke="dodgerblue" stroke-width="0.8999999999999915" stroke-linecap="round"></line><line x1="44.5" y1="-51.5" x2="45.0303300858899" y2="-50.9696699141101" stroke="dodgerblue" stroke-width="0.8999999999999915" stroke-linecap="round"></line><line x1="44.5" y1="-51.5" x2="45.0303300858899" y2="-52.0303300858899" stroke="dodgerblue" stroke-width="0.8999999999999915" stroke-linecap="round"></line><line x1="44.5" y1="-51.5" x2="43.9696699141101" y2="-50.9696699141101" stroke="dodgerblue" stroke-width="0.8999999999999915" stroke-linecap="round"></line><line x1="44.5" y1="-51.5" x2="43.9696699141101" y2="-52.0303300858899" stroke="dodgerblue" stroke-width="0.8999999999999915" stroke-linecap="round"></line>
</svg>
